<!-- <svg xmlns="http://www.w3.org/2000/svg" height="48" viewBox="0 96 960 960" width="38" fill="#ffffff">
  <path d="M256 936 120 800q-15-15-15-35t15-35l134-134L120 462q-15-15-15-35t15-35l136-136q15-15 35-15t35 15l134 134 134-134q15-15 35-15t35 15l136 136q15 15 15 35t-15 35L704 596l134 134q15 15 15 35t-15 35L704 936q-15 15-35 15t-35-15L500 802 366 936q-15 15-35 15t-35-15Z"/>
</svg> -->


<svg xmlns="http://www.w3.org/2000/svg" height="48" viewBox="0 96 960 960" width="38" fill="#ffffff">
  <path d="M292 898L448 742 292 586q-12-12-12-28.5T292 529l47-47q12-12 28.5-12T396 482l155 155 155-155q12-12 28.5-12T764 482l47 47q12 12 12 28.5T811 557L656 712l155 156q12 12 12 28.5T811 955l-47 47q-12 12-28.5 12T708 1002L553 847 398 1002q-12 12-28.5 12T342 1002l-47-47q-12-12-12-28.5T292 898z"/>
</svg>

